:SAMPLES-PER-SECOND 30
:FULLY-SPECIFIED
:DEGREES
411
root  30.7263 34.2724 12.7106 -173.121 28.0731 179.755
LeftUpLeg  -10.9751 13.8821 2.14346
LeftLeg  12.734 14.131 2.22604
LeftFoot  2.62835 -0.0151837 0.661853
LeftToes  -18.4784 2.48695e-006 -1.03773e-007
Spine  1.54425 -0.107033 -0.776955
Spine1  2.81824 -0.23153 -1.33316
RightShoulder  0.0663346 6.23351 7.02695
RightArm  -30.7272 -12.6022 76.8451
RightForeArm  34.0056 13.7367 2.46335
RightHand  0.252957 -5.18758 -5.20291
LeftShoulder1  0.0676747 -1.01235 -10.3294
LeftArm  -19.0966 12.8851 -66.6825
LeftForeArm  35.3015 -12.3201 -2.19878
LeftHand  0.152031 3.64171 4.40115
HEad  -13.6115 -35.1537 6.64112
RightUpLeg  -10.798 -3.72344 -4.98269
RightLeg  13.0775 13.9514 2.28881
RightFoot  0.110977 -0.000752288 0.0888805
RightToes  -29.7188 -0.141229 -0.249232
412
root  30.8155 34.2734 12.7579 -173.255 28.5961 179.878
LeftUpLeg  -10.7421 13.947 2.47233
LeftLeg  12.8487 14.5639 2.32227
LeftFoot  2.72259 -0.0168504 0.705628
LeftToes  -18.67 2.48695e-006 -1.03773e-007
Spine  1.49075 -0.183647 -0.648408
Spine1  2.69387 -0.387535 -1.0847
RightShoulder  0.0687869 6.18478 7.19802
RightArm  -28.8925 -12.3947 76.9471
RightForeArm  32.9883 14.6279 2.631
RightHand  0.23631 -5.20136 -4.82294
LeftShoulder1  0.0720912 -1.2352 -10.6581
LeftArm  -18.0213 12.9478 -66.8295
LeftForeArm  34.8389 -12.664 -2.2626
LeftHand  0.139574 3.59113 4.07224
HEad  -13.9425 -34.6175 6.77458
RightUpLeg  -10.8045 -3.28393 -4.73197
RightLeg  13.3202 14.0381 2.36315
RightFoot  0.0630107 -0.00167654 0.0765898
RightToes  -29.5506 -0.139542 -0.247568
413
root  30.9151 34.2707 12.8221 -173.298 28.9301 179.985
LeftUpLeg  -10.7181 13.8563 2.79238
LeftLeg  13.1171 14.9483 2.45309
LeftFoot  2.792 -0.0180086 0.741844
LeftToes  -18.7938 2.48695e-006 -1.03773e-007
Spine  1.40445 -0.340848 -0.514406
Spine1  2.49915 -0.708167 -0.81983
RightShoulder  0.0720178 6.31436 7.37559
RightArm  -26.9444 -12.3059 76.9176
RightForeArm  32.6007 15.4679 2.78987
RightHand  0.205192 -4.97547 -4.34448
LeftShoulder1  0.0796422 -1.59584 -10.966
LeftArm  -17.2743 12.9984 -66.9622
LeftForeArm  34.4361 -12.9055 -2.30757
LeftHand  0.131455 3.40181 4.04642
HEad  -13.7974 -33.9153 6.83748
RightUpLeg  -10.9512 -3.33306 -4.44326
RightLeg  13.7081 14.4107 2.52378
RightFoot  -0.0834086 -0.00146816 0.039916
RightToes  -29.1475 -0.137905 -0.245949
414
root  31.0284 34.2631 12.8825 -173.292 29.2516 -179.937
LeftUpLeg  -10.7082 13.7229 3.09248
LeftLeg  13.3094 15.383 2.575
LeftFoot  2.92378 -0.0204469 0.798183
LeftToes  -19.0644 2.48695e-006 -1.03773e-007
Spine  1.28784 -0.504277 -0.389724
Spine1  2.23917 -1.0454 -0.568048
RightShoulder  0.0771709 6.55186 7.63743
RightArm  -24.7655 -12.3892 76.5681
RightForeArm  32.6666 16.1583 2.92119
RightHand  0.168592 -4.48113 -3.93124
LeftShoulder1  0.0886648 -1.98353 -11.2848
LeftArm  -16.4125 13.0112 -67.0409
LeftForeArm  33.8157 -13.1682 -2.35672
LeftHand  0.127288 3.44191 3.85686
HEad  -13.5554 -33.1743 6.75421
RightUpLeg  -11.1144 -3.5339 -4.16278
RightLeg  14.0635 14.9288 2.70677
RightFoot  -0.269315 -0.000910418 -0.0098509
RightToes  -28.891 -0.136359 -0.244359
415
root  31.1479 34.2479 12.9558 -173.291 29.6424 -179.877
LeftUpLeg  -10.7246 13.4792 3.40171
LeftLeg  13.5792 15.9609 2.74536
LeftFoot  3.02636 -0.0229451 0.855568
LeftToes  -19.3544 2.48695e-006 -1.03773e-007
Spine  1.16206 -0.6316 -0.285186
Spine1  1.95278 -1.3122 -0.354296
RightShoulder  0.0852184 6.8164 7.90894
RightArm  -22.6031 -12.5231 76.0215
RightForeArm  32.6817 16.5947 3.0047
RightHand  0.142248 -4.27134 -3.43776
LeftShoulder1  0.0989091 -2.36237 -11.5538
LeftArm  -15.2359 12.9121 -67.0719
LeftForeArm  33.2078 -13.3851 -2.39746
LeftHand  0.123536 3.53156 3.6761
HEad  -13.0429 -32.4365 6.72413
RightUpLeg  -11.2923 -3.57271 -3.89056
RightLeg  14.3968 15.3667 2.87537
RightFoot  -0.484347 -0.00189458 -0.0707872
RightToes  -28.6932 -0.135026 -0.242782
